<svg width="24" height="24" viewBox="0 0 24 24" fill="none" xmlns="http://www.w3.org/2000/svg">
<g clip-path="url(#clip0_2330_1725)">
<path d="M14.6967 9.3033C13.6335 8.24011 13.0739 6.83462 12.7884 4.71155C12.5011 2.5741 12.5 -0.214629 12.5 -4V-11.5H35.5V11.5H28C24.2146 11.5 21.4259 11.4989 19.2884 11.2116C17.1654 10.9261 15.7599 10.3665 14.6967 9.3033Z" stroke="#87878E"/>
<path d="M9.3033 9.3033C8.24011 10.3665 6.83462 10.9261 4.71155 11.2116C2.5741 11.4989 -0.214631 11.5 -4 11.5L-11.5 11.5L-11.5 -11.5L11.5 -11.5L11.5 -4C11.5 -0.21463 11.4989 2.5741 11.2116 4.71155C10.9261 6.83462 10.3665 8.24011 9.3033 9.3033Z" stroke="#87878E"/>
<path d="M9.3033 14.6967C10.3665 15.7599 10.9261 17.1654 11.2116 19.2884C11.4989 21.4259 11.5 24.2146 11.5 28L11.5 35.5L-11.5 35.5L-11.5 12.5L-4 12.5C-0.214631 12.5 2.5741 12.5011 4.71155 12.7884C6.83462 13.0739 8.24011 13.6335 9.3033 14.6967Z" stroke="#87878E"/>
<path d="M14.6967 14.6967C15.7599 13.6335 17.1654 13.0739 19.2884 12.7884C21.4259 12.5011 24.2146 12.5 28 12.5L35.5 12.5L35.5 35.5L12.5 35.5L12.5 28C12.5 24.2146 12.5011 21.4259 12.7884 19.2885C13.0739 17.1654 13.6335 15.7599 14.6967 14.6967Z" stroke="#87878E"/>
</g>
<defs>
<clipPath id="clip0_2330_1725">
<rect width="24" height="24" rx="2" fill="white"/>
</clipPath>
</defs>
</svg>
