<svg width="40" height="40" viewBox="0 0 40 40" fill="none" xmlns="http://www.w3.org/2000/svg">
<path d="M18 26C19.4787 25.9997 20.9219 25.5873 22.1709 24.8174C22.601 24.5523 23.1656 24.5806 23.5229 24.9379L26.586 28.001C26.9765 28.3915 27.6095 28.3915 28 28.001C28.3905 27.6105 28.3905 26.9775 28 26.587L24.937 23.524C24.5796 23.1666 24.5514 22.602 24.8166 22.1718C25.5869 20.9226 25.9996 19.4791 26 18C26 13.589 22.411 10 18 10C13.589 10 10 13.589 10 18C10 22.411 13.589 26 18 26ZM18 12C21.309 12 24 14.691 24 18C24 21.309 21.309 24 18 24C14.691 24 12 21.309 12 18C12 14.691 14.691 12 18 12Z" fill="#87878E"/>
</svg>
