<svg width="36.000000" height="36.000000" viewBox="0 0 36 36" fill="none" xmlns="http://www.w3.org/2000/svg" xmlns:xlink="http://www.w3.org/1999/xlink">
	<desc>
			Created with Pixso.
	</desc>
	<defs>
		<clipPath id="clip14_12201">
			<rect id="basil:vk-solid" rx="-0.500000" width="35.000000" height="35.000000" transform="translate(0.500000 0.500000)" fill="white" fill-opacity="0"/>
		</clipPath>
	</defs>
	<rect id="basil:vk-solid" rx="-0.500000" width="35.000000" height="35.000000" transform="translate(0.500000 0.500000)" fill="#FFFFFF" fill-opacity="0"/>
	<g clip-path="url(#clip14_12201)">
		<path id="Vector" d="M28.83 27.57C27.53 27.57 27.14 26.52 24.82 24.2C22.8 22.24 21.94 22 21.42 22C20.72 22 20.52 22.19 20.52 23.17L20.52 26.25C20.52 27.08 20.25 27.57 18.08 27.57C15.97 27.43 13.92 26.79 12.11 25.7C10.29 24.61 8.76 23.11 7.65 21.31C4.99 18.01 3.14 14.12 2.25 9.98L2 9L3.42 9L6.84 9C7.72 9 8.03 9.39 8.38 10.29C10.04 15.18 12.87 19.43 14.02 19.43C14.46 19.43 14.66 19.24 14.66 18.14L14.66 13.1C14.51 10.81 13.29 10.61 13.29 9.78L13.29 9L14.17 9L19.54 9C20.28 9 20.52 9.36 20.52 10.24L20.52 17.04C20.52 17.77 20.84 18.01 21.06 18.01C21.5 18.01 21.84 17.77 22.65 16.96C24.38 14.85 25.8 12.5 26.85 9.97C26.96 9.67 27.16 9.41 27.43 9.24C27.7 9.06 28.02 8.98 28.34 9L31.76 9L33.5 9L32.79 10.24C31.54 13.03 30 15.68 28.19 18.14C27.83 18.7 27.68 18.99 28.19 19.65C28.53 20.17 29.73 21.17 30.54 22.12C31.71 23.29 32.69 24.64 33.42 26.13C33.72 27.08 33.23 27.57 32.25 27.57L28.83 27.57Z" stroke="#87878E" stroke-opacity="1.000000" stroke-width="1.000000"/>
	</g>
</svg>
