<?xml version="1.0" encoding="utf-8"?><svg viewBox="0 0 40 40" xmlns="http://www.w3.org/2000/svg" xmlns:xlink="http://www.w3.org/1999/xlink"><style>:root>svg{display:none}:root>svg:target{display:block}</style><svg viewBox="0 0 20 20" id="icon-date" xmlns="http://www.w3.org/2000/svg"><path d="M3.334 7.5v9.167h7.333a6 6 0 0 0 6-6V7.5m-13.333 0V3.333h13.333V7.5m-13.333 0h13.333m-3.333-5.833V5M6.667 1.667V5"/></svg><svg viewBox="0 0 24 24" id="icon-dzen" xmlns="http://www.w3.org/2000/svg"><g clip-path="url(#ba)"><path d="M14.697 9.303c-1.063-1.063-1.623-2.468-1.909-4.591C12.501 2.574 12.5-.215 12.5-4v-7.5h23v23H28c-3.785 0-6.574-.001-8.712-.288-2.123-.286-3.528-.845-4.591-1.909Zm-5.394 0c-1.063 1.063-2.468 1.623-4.591 1.909-2.138.287-4.927.288-8.712.288h-7.5v-23h23V-4c0 3.785-.001 6.574-.288 8.712-.286 2.123-.845 3.528-1.909 4.591Zm0 5.394c1.063 1.063 1.623 2.468 1.909 4.591.287 2.138.288 4.927.288 8.712v7.5h-23v-23H-4c3.785 0 6.574.001 8.712.288 2.123.286 3.528.845 4.591 1.909Zm5.394 0c1.063-1.063 2.468-1.623 4.591-1.909 2.138-.287 4.927-.288 8.712-.288h7.5v23h-23V28c0-3.785.001-6.574.288-8.712.286-2.123.845-3.528 1.909-4.591Z"/></g><defs><clipPath id="ba"><rect width="24" height="24" rx="2"/></clipPath></defs></svg><svg viewBox="0 0 36 36" id="icon-instagram" xmlns="http://www.w3.org/2000/svg"><defs><clipPath id="ca"><rect rx="-.5" width="35" height="35" transform="translate(.5 .5)" fill-opacity="0"/></clipPath></defs><rect rx="-.5" width="35" height="35" transform="translate(.5 .5)"/><g clip-path="url(#ca)"><path d="M6 24c0 3.31 2.68 6 6 6h18V12c0-3.32-2.69-6-6-6H6v18Z"/><circle cx="18" cy="18" r="4.5"/><circle cx="24" cy="12" r="1.5"/></g></svg><svg viewBox="0 0 36 36" id="icon-mail" xmlns="http://www.w3.org/2000/svg"><path d="M5.836 9v18h24V9m-24 0h24m-24 0 8.049 7.043a6 6 0 0 0 7.902 0L29.836 9"/></svg><svg viewBox="0 0 40 40" id="icon-search" xmlns="http://www.w3.org/2000/svg"><path d="M18 26a7.952 7.952 0 0 0 4.17-1.183c.431-.265.996-.236 1.353.12l3.063 3.064A1 1 0 1 0 28 26.587l-3.063-3.063c-.357-.357-.386-.922-.12-1.352A7.952 7.952 0 0 0 26 18c0-4.411-3.589-8-8-8s-8 3.589-8 8 3.589 8 8 8Zm0-14c3.309 0 6 2.691 6 6s-2.691 6-6 6-6-2.691-6-6 2.691-6 6-6Z"/></svg><svg viewBox="0 0 36 36" id="icon-telegram" xmlns="http://www.w3.org/2000/svg"><defs><clipPath id="fa"><rect rx="-.5" width="35" height="35" transform="translate(.5 .5)" fill-opacity="0"/></clipPath></defs><rect rx="-.5" width="35" height="35" transform="translate(.5 .5)"/><g clip-path="url(#fa)"><path d="M14.31 18.35 30 7.5m-4.67 17.89a1 1 0 0 1-1.59.53l-4.53-3.63-4.9-3.94-4.99-1.06c-.98-.21-1.08-1.56-.15-1.91L30 7.5l-4.67 17.89Zm-11.02-7.04V27l4.9-4.71"/></g></svg><svg viewBox="0 0 36 36" id="icon-vkontakte" xmlns="http://www.w3.org/2000/svg"><defs><clipPath id="ga"><rect rx="-.5" width="35" height="35" transform="translate(.5 .5)" fill-opacity="0"/></clipPath></defs><rect rx="-.5" width="35" height="35" transform="translate(.5 .5)"/><g clip-path="url(#ga)"><path d="M28.83 27.57c-1.3 0-1.69-1.05-4.01-3.37-2.02-1.96-2.88-2.2-3.4-2.2-.7 0-.9.19-.9 1.17v3.08c0 .83-.27 1.32-2.44 1.32-2.11-.14-4.16-.78-5.97-1.87a13.19 13.19 0 0 1-4.46-4.39c-2.66-3.3-4.51-7.19-5.4-11.33L2 9h4.84c.88 0 1.19.39 1.54 1.29 1.66 4.89 4.49 9.14 5.64 9.14.44 0 .64-.19.64-1.29V13.1c-.15-2.29-1.37-2.49-1.37-3.32V9h6.25c.74 0 .98.36.98 1.24v6.8c0 .73.32.97.54.97.44 0 .78-.24 1.59-1.05 1.73-2.11 3.15-4.46 4.2-6.99.11-.3.31-.56.58-.73.27-.18.59-.26.91-.24h5.16l-.71 1.24a42.979 42.979 0 0 1-4.6 7.9c-.36.56-.51.85 0 1.51.34.52 1.54 1.52 2.35 2.47 1.17 1.17 2.15 2.52 2.88 4.01.3.95-.19 1.44-1.17 1.44h-3.42Z"/></g></svg><svg viewBox="0 0 36 36" id="icon-youtube" xmlns="http://www.w3.org/2000/svg"><defs><clipPath id="ha"><rect rx="-.5" width="35" height="35" transform="translate(.5 .5)" fill-opacity="0"/></clipPath></defs><rect rx="-.5" width="35" height="35" transform="translate(.5 .5)"/><g clip-path="url(#ha)"><path d="M24 9c3.31 0 6 2.68 6 6v12H12c-3.32 0-6-2.69-6-6V9h18Zm-7.78 12.37L21.59 18l-5.37-3.38v6.75Z"/></g></svg></svg>